<svg width="100" height="100" viewBox="0 0 100 100" fill="none" xmlns="http://www.w3.org/2000/svg">
<rect width="100" height="100" rx="10" fill="#1F1F1F"/>
<line x1="17.5" y1="19" x2="17.5" y2="56" stroke="#FFD700"/>
<line x1="28.5" y1="28" x2="28.5" y2="65" stroke="#FFD700" stroke-opacity="0.25"/>
<line x1="42.5" y1="17" x2="42.5" y2="54" stroke="#FFD700"/>
<line x1="51.5" y1="24" x2="51.5" y2="61" stroke="#FFD700" stroke-opacity="0.25"/>
<line x1="61.5" y1="11" x2="61.5" y2="48" stroke="#FFD700"/>
<line x1="69.5" y1="32" x2="69.5" y2="69" stroke="#FFD700" stroke-opacity="0.25"/>
<line x1="78.5" y1="12" x2="78.5" y2="49" stroke="#FFD700"/>
<line opacity="0.3" x1="28.5" y1="12" x2="28.5" y2="36" stroke="#FFD700"/>
<path d="M25.9318 69V28.2727H30.8636V64.625H49.7955V69H25.9318Z" fill="white"/>
<path d="M48.9318 85V44.2727H62.6932C65.875 44.2727 68.4867 44.8163 70.5284 45.9034C72.5701 46.9773 74.0814 48.4555 75.0625 50.3381C76.0436 52.2206 76.5341 54.3617 76.5341 56.7614C76.5341 59.161 76.0436 61.2888 75.0625 63.1449C74.0814 65.0009 72.5767 66.4593 70.5483 67.5199C68.5199 68.5672 65.928 69.0909 62.7727 69.0909H51.6364V64.6364H62.6136C64.7879 64.6364 66.5379 64.3182 67.8636 63.6818C69.2027 63.0455 70.1705 62.1439 70.767 60.9773C71.3769 59.7973 71.6818 58.392 71.6818 56.7614C71.6818 55.1307 71.3769 53.7055 70.767 52.4858C70.1572 51.2661 69.1828 50.3248 67.8438 49.6619C66.5047 48.9858 64.7348 48.6477 62.5341 48.6477H53.8636V85H48.9318ZM68.1023 66.7045L78.125 85H72.3977L62.5341 66.7045H68.1023Z" fill="white"/>
<path d="M36 72L37.3471 76.1459H41.7063L38.1796 78.7082L39.5267 82.8541L36 80.2918L32.4733 82.8541L33.8204 78.7082L30.2937 76.1459H34.6529L36 72Z" fill="#FFD700"/>
</svg>
