<svg width="121" height="121" viewBox="0 0 121 121" fill="none" xmlns="http://www.w3.org/2000/svg">
<rect width="121" height="121" fill="#FFA852"/>
<path d="M40.525 26.2728C42.1133 26.0793 44.3421 27.2854 47.2115 29.8909C50.0809 32.4964 51.6768 35.1227 51.9992 37.7698C52.3216 40.4169 52.5009 45.197 52.537 52.11C52.565 58.9568 52.3947 64.4511 52.0261 68.5927C49.4511 93.218 47.0718 105.664 44.8879 105.93C43.432 106.107 41.471 105.171 39.0051 103.12C36.5972 100.996 35.3006 99.1725 35.1152 97.6505C35.0991 97.5181 35.5734 93.9681 36.538 87.0003C37.5026 80.0326 38.2335 71.1457 38.7307 60.3396C39.286 49.4593 38.9752 39.1882 37.7984 29.5263C37.5646 27.6071 38.4735 26.5226 40.525 26.2728Z" fill="white"/>
<path d="M57 57.1L56.4 45.8C56.4 42.0667 57.5667 40.2 59.9 40.2C61.2333 40.2 62.5333 40.7 63.8 41.7C65.1333 42.7 66.1333 44.2667 66.8 46.4C69.0667 44.4 71.5333 42.8 74.2 41.6C76.9333 40.3333 79.3333 39.7 81.4 39.7C86.2667 39.7 88.7 40.8667 88.7 43.2C88.7 44.4 88.4667 45.3 88 45.9C87.6 46.4333 87.2667 46.8333 87 47.1C86.8 47.3667 86.4 47.7333 85.8 48.2C85.2667 48.6 84.8667 48.9 84.6 49.1C83.0667 50.1 81.9667 50.8 81.3 51.2C78.3 53.0667 75.7333 55.3333 73.6 58C71.4667 60.6 69.8667 64.2333 68.8 68.9C67 76.5667 65.2333 82.3 63.5 86.1C61.8333 89.8333 59.9333 91.7 57.8 91.7C55.7333 91.7 54.1667 90.7 53.1 88.7C52.1 86.7 51.6 84.8333 51.6 83.1C51.6 81.3 52.2333 78.6333 53.5 75.1C54.8333 71.5667 55.7333 68.5333 56.2 66C56.7333 63.4 57 60.4333 57 57.1Z" fill="white"/>
<rect x="53" y="13" width="24" height="24" rx="12" fill="white"/>
</svg>
