<svg width="221" height="101" viewBox="0 0 221 101" fill="none" xmlns="http://www.w3.org/2000/svg">
<path d="M212 78C212.943 75.6667 214.615 68.8 213.767 60C212.919 51.2 212.236 47 212 46" stroke="#1900B6" stroke-opacity="0.3"/>
<path d="M211 78C211.943 75.6667 213.615 68.8 212.767 60C211.919 51.2 211.236 47 211 46" stroke="#1900B6" stroke-opacity="0.3"/>
<path d="M210 78C210.943 75.6667 212.615 68.8 211.767 60C210.919 51.2 210.236 47 210 46" stroke="#1900B6" stroke-opacity="0.3"/>
<path d="M209 78C209.943 75.6667 211.615 68.8 210.767 60C209.919 51.2 209.236 47 209 46" stroke="#1900B6" stroke-opacity="0.3"/>
<path d="M208 78C208.943 75.6667 210.615 68.8 209.767 60C208.919 51.2 208.236 47 208 46" stroke="#1900B6" stroke-opacity="0.3"/>
<path d="M207 78C207.943 75.6667 209.615 68.8 208.767 60C207.919 51.2 207.236 47 207 46" stroke="#1900B6" stroke-opacity="0.3"/>
<line x1="6.5" y1="8" x2="6.5" y2="85" stroke="#1900B6"/>
<line opacity="0.3" x1="23.5" y1="19" x2="23.5" y2="43" stroke="#1900B6"/>
<line x1="39.5" y1="15" x2="39.5" y2="53" stroke="#1900B6"/>
<line x1="52.5" y1="-2.18557e-08" x2="52.5" y2="47" stroke="#1900B6" stroke-opacity="0.3"/>
<line x1="66.5" y1="6" x2="66.5" y2="53" stroke="#1900B6"/>
<line x1="80.5" y1="18" x2="80.5" y2="41" stroke="#1900B6" stroke-opacity="0.3"/>
<line x1="89.5" y1="21" x2="89.5" y2="34" stroke="#1900B6"/>
<path d="M5.63636 86V39.4545H11.2727V81H32.9091V86H5.63636Z" fill="black"/>
<path d="M39.5455 86.7273C36.1818 86.7273 33.2803 85.9848 30.8409 84.5C28.4167 83 26.5455 80.9091 25.2273 78.2273C23.9242 75.5303 23.2727 72.3939 23.2727 68.8182C23.2727 65.2424 23.9242 62.0909 25.2273 59.3636C26.5455 56.6212 28.3788 54.4848 30.7273 52.9545C33.0909 51.4091 35.8485 50.6364 39 50.6364C40.8182 50.6364 42.6136 50.9394 44.3864 51.5455C46.1591 52.1515 47.7727 53.1364 49.2273 54.5C50.6818 55.8485 51.8409 57.6364 52.7045 59.8636C53.5682 62.0909 54 64.8333 54 68.0909V70.3636H27.0909V65.7273H48.5455C48.5455 63.7576 48.1515 62 47.3636 60.4545C46.5909 58.9091 45.4848 57.6894 44.0455 56.7955C42.6212 55.9015 40.9394 55.4545 39 55.4545C36.8636 55.4545 35.0152 55.9848 33.4545 57.0455C31.9091 58.0909 30.7197 59.4545 29.8864 61.1364C29.053 62.8182 28.6364 64.6212 28.6364 66.5455V69.6364C28.6364 72.2727 29.0909 74.5076 30 76.3409C30.9242 78.1591 32.2045 79.5455 33.8409 80.5C35.4773 81.4394 37.3788 81.9091 39.5455 81.9091C40.9545 81.9091 42.2273 81.7121 43.3636 81.3182C44.5152 80.9091 45.5076 80.303 46.3409 79.5C47.1742 78.6818 47.8182 77.6667 48.2727 76.4545L53.4545 77.9091C52.9091 79.6667 51.9924 81.2121 50.7045 82.5455C49.4167 83.8636 47.8258 84.8939 45.9318 85.6364C44.0379 86.3636 41.9091 86.7273 39.5455 86.7273Z" fill="black"/>
<path d="M67.0909 86.7273C64.1818 86.7273 61.6136 85.9924 59.3864 84.5227C57.1591 83.0379 55.4167 80.947 54.1591 78.25C52.9015 75.5379 52.2727 72.3333 52.2727 68.6364C52.2727 64.9697 52.9015 61.7879 54.1591 59.0909C55.4167 56.3939 57.1667 54.3106 59.4091 52.8409C61.6515 51.3712 64.2424 50.6364 67.1818 50.6364C69.4545 50.6364 71.25 51.0152 72.5682 51.7727C73.9015 52.5152 74.9167 53.3636 75.6136 54.3182C76.3258 55.2576 76.8788 56.0303 77.2727 56.6364H77.7273V39.4545H83.0909V86H77.9091V80.6364H77.2727C76.8788 81.2727 76.3182 82.0758 75.5909 83.0455C74.8636 84 73.8258 84.8561 72.4773 85.6136C71.1288 86.3561 69.3333 86.7273 67.0909 86.7273ZM67.8182 81.9091C69.9697 81.9091 71.7879 81.3485 73.2727 80.2273C74.7576 79.0909 75.8864 77.5227 76.6591 75.5227C77.4318 73.5076 77.8182 71.1818 77.8182 68.5455C77.8182 65.9394 77.4394 63.6591 76.6818 61.7045C75.9242 59.7348 74.803 58.2045 73.3182 57.1136C71.8333 56.0076 70 55.4545 67.8182 55.4545C65.5455 55.4545 63.6515 56.0379 62.1364 57.2045C60.6364 58.3561 59.5076 59.9242 58.75 61.9091C58.0076 63.8788 57.6364 66.0909 57.6364 68.5455C57.6364 71.0303 58.0152 73.2879 58.7727 75.3182C59.5455 77.3333 60.6818 78.9394 62.1818 80.1364C63.697 81.3182 65.5758 81.9091 67.8182 81.9091Z" fill="black"/>
<path d="M96 99.8182C93.4091 99.8182 91.1818 99.4848 89.3182 98.8182C87.4545 98.1667 85.9015 97.303 84.6591 96.2273C83.4318 95.1667 82.4545 94.0303 81.7273 92.8182L86 89.8182C86.4848 90.4545 87.0985 91.1818 87.8409 92C88.5833 92.8333 89.5985 93.553 90.8864 94.1591C92.1894 94.7803 93.8939 95.0909 96 95.0909C98.8182 95.0909 101.144 94.4091 102.977 93.0455C104.811 91.6818 105.727 89.5455 105.727 86.6364V79.5455H105.273C104.879 80.1818 104.318 80.9697 103.591 81.9091C102.879 82.8333 101.848 83.6591 100.5 84.3864C99.1667 85.0985 97.3636 85.4545 95.0909 85.4545C92.2727 85.4545 89.7424 84.7879 87.5 83.4545C85.2727 82.1212 83.5076 80.1818 82.2045 77.6364C80.9167 75.0909 80.2727 72 80.2727 68.3636C80.2727 64.7879 80.9015 61.6742 82.1591 59.0227C83.4167 56.3561 85.1667 54.2955 87.4091 52.8409C89.6515 51.3712 92.2424 50.6364 95.1818 50.6364C97.4545 50.6364 99.2576 51.0152 100.591 51.7727C101.939 52.5152 102.97 53.3636 103.682 54.3182C104.409 55.2576 104.97 56.0303 105.364 56.6364H105.909V51.0909H111.091V87C111.091 90 110.409 92.4394 109.045 94.3182C107.697 96.2121 105.879 97.5985 103.591 98.4773C101.318 99.3712 98.7879 99.8182 96 99.8182ZM95.8182 80.6364C97.9697 80.6364 99.7879 80.1439 101.273 79.1591C102.758 78.1742 103.886 76.7576 104.659 74.9091C105.432 73.0606 105.818 70.8485 105.818 68.2727C105.818 65.7576 105.439 63.5379 104.682 61.6136C103.924 59.6894 102.803 58.1818 101.318 57.0909C99.8333 56 98 55.4545 95.8182 55.4545C93.5455 55.4545 91.6515 56.0303 90.1364 57.1818C88.6364 58.3333 87.5076 59.8788 86.75 61.8182C86.0076 63.7576 85.6364 65.9091 85.6364 68.2727C85.6364 70.697 86.0152 72.8409 86.7727 74.7045C87.5455 76.553 88.6818 78.0076 90.1818 79.0682C91.697 80.1136 93.5758 80.6364 95.8182 80.6364Z" fill="black"/>
<path d="M126.545 86.7273C123.182 86.7273 120.28 85.9848 117.841 84.5C115.417 83 113.545 80.9091 112.227 78.2273C110.924 75.5303 110.273 72.3939 110.273 68.8182C110.273 65.2424 110.924 62.0909 112.227 59.3636C113.545 56.6212 115.379 54.4848 117.727 52.9545C120.091 51.4091 122.848 50.6364 126 50.6364C127.818 50.6364 129.614 50.9394 131.386 51.5455C133.159 52.1515 134.773 53.1364 136.227 54.5C137.682 55.8485 138.841 57.6364 139.705 59.8636C140.568 62.0909 141 64.8333 141 68.0909V70.3636H114.091V65.7273H135.545C135.545 63.7576 135.152 62 134.364 60.4545C133.591 58.9091 132.485 57.6894 131.045 56.7955C129.621 55.9015 127.939 55.4545 126 55.4545C123.864 55.4545 122.015 55.9848 120.455 57.0455C118.909 58.0909 117.72 59.4545 116.886 61.1364C116.053 62.8182 115.636 64.6212 115.636 66.5455V69.6364C115.636 72.2727 116.091 74.5076 117 76.3409C117.924 78.1591 119.205 79.5455 120.841 80.5C122.477 81.4394 124.379 81.9091 126.545 81.9091C127.955 81.9091 129.227 81.7121 130.364 81.3182C131.515 80.9091 132.508 80.303 133.341 79.5C134.174 78.6818 134.818 77.6667 135.273 76.4545L140.455 77.9091C139.909 79.6667 138.992 81.2121 137.705 82.5455C136.417 83.8636 134.826 84.8939 132.932 85.6364C131.038 86.3636 128.909 86.7273 126.545 86.7273Z" fill="black"/>
<path d="M136.909 86V51.0909H142.091V56.3636H142.455C143.091 54.6364 144.242 53.2348 145.909 52.1591C147.576 51.0833 149.455 50.5455 151.545 50.5455C151.939 50.5455 152.432 50.553 153.023 50.5682C153.614 50.5833 154.061 50.6061 154.364 50.6364V56.0909C154.182 56.0455 153.765 55.9773 153.114 55.8864C152.477 55.7803 151.803 55.7273 151.091 55.7273C149.394 55.7273 147.879 56.0833 146.545 56.7955C145.227 57.4924 144.182 58.4621 143.409 59.7045C142.652 60.9318 142.273 62.3333 142.273 63.9091V86H136.909Z" fill="#1900B6"/>
<path d="M152.967 86V50.6818H158.393V86H152.967ZM155.726 44.7955C154.668 44.7955 153.756 44.4352 152.99 43.7148C152.238 42.9943 151.863 42.1282 151.863 41.1165C151.863 40.1048 152.238 39.2387 152.99 38.5182C153.756 37.7977 154.668 37.4375 155.726 37.4375C156.784 37.4375 157.688 37.7977 158.439 38.5182C159.206 39.2387 159.589 40.1048 159.589 41.1165C159.589 42.1282 159.206 42.9943 158.439 43.7148C157.688 44.4352 156.784 44.7955 155.726 44.7955Z" fill="#1900B6"/>
<path d="M183.636 58.9091L178.818 60.2727C178.515 59.4697 178.068 58.6894 177.477 57.9318C176.902 57.1591 176.114 56.5227 175.114 56.0227C174.114 55.5227 172.833 55.2727 171.273 55.2727C169.136 55.2727 167.356 55.7652 165.932 56.75C164.523 57.7197 163.818 58.9545 163.818 60.4545C163.818 61.7879 164.303 62.8409 165.273 63.6136C166.242 64.3864 167.758 65.0303 169.818 65.5455L175 66.8182C178.121 67.5758 180.447 68.7348 181.977 70.2955C183.508 71.8409 184.273 73.8333 184.273 76.2727C184.273 78.2727 183.697 80.0606 182.545 81.6364C181.409 83.2121 179.818 84.4545 177.773 85.3636C175.727 86.2727 173.348 86.7273 170.636 86.7273C167.076 86.7273 164.129 85.9545 161.795 84.4091C159.462 82.8636 157.985 80.6061 157.364 77.6364L162.455 76.3636C162.939 78.2424 163.856 79.6515 165.205 80.5909C166.568 81.5303 168.348 82 170.545 82C173.045 82 175.03 81.4697 176.5 80.4091C177.985 79.3333 178.727 78.0455 178.727 76.5455C178.727 75.3333 178.303 74.3182 177.455 73.5C176.606 72.6667 175.303 72.0455 173.545 71.6364L167.727 70.2727C164.53 69.5152 162.182 68.3409 160.682 66.75C159.197 65.1439 158.455 63.1364 158.455 60.7273C158.455 58.7576 159.008 57.0152 160.114 55.5C161.235 53.9848 162.758 52.7955 164.682 51.9318C166.621 51.0682 168.818 50.6364 171.273 50.6364C174.727 50.6364 177.439 51.3939 179.409 52.9091C181.394 54.4242 182.803 56.4242 183.636 58.9091Z" fill="#1900B6"/>
<path d="M198.545 86.7273C195.182 86.7273 192.28 85.9848 189.841 84.5C187.417 83 185.545 80.9091 184.227 78.2273C182.924 75.5303 182.273 72.3939 182.273 68.8182C182.273 65.2424 182.924 62.0909 184.227 59.3636C185.545 56.6212 187.379 54.4848 189.727 52.9545C192.091 51.4091 194.848 50.6364 198 50.6364C199.818 50.6364 201.614 50.9394 203.386 51.5455C205.159 52.1515 206.773 53.1364 208.227 54.5C209.682 55.8485 210.841 57.6364 211.705 59.8636C212.568 62.0909 213 64.8333 213 68.0909V70.3636H186.091V65.7273H207.545C207.545 63.7576 207.152 62 206.364 60.4545C205.591 58.9091 204.485 57.6894 203.045 56.7955C201.621 55.9015 199.939 55.4545 198 55.4545C195.864 55.4545 194.015 55.9848 192.455 57.0455C190.909 58.0909 189.72 59.4545 188.886 61.1364C188.053 62.8182 187.636 64.6212 187.636 66.5455V69.6364C187.636 72.2727 188.091 74.5076 189 76.3409C189.924 78.1591 191.205 79.5455 192.841 80.5C194.477 81.4394 196.379 81.9091 198.545 81.9091C199.955 81.9091 201.227 81.7121 202.364 81.3182C203.515 80.9091 204.508 80.303 205.341 79.5C206.174 78.6818 206.818 77.6667 207.273 76.4545L212.455 77.9091C211.909 79.6667 210.992 81.2121 209.705 82.5455C208.417 83.8636 206.826 84.8939 204.932 85.6364C203.038 86.3636 200.909 86.7273 198.545 86.7273Z" fill="#1900B6"/>
<path d="M204.847 37.3624L209.164 42.0568L214.865 39.4139L211.831 44.9581L216.148 49.6524L209.957 48.3845L206.923 53.9287L206.13 47.6009L199.939 46.333L205.64 43.6902L204.847 37.3624Z" fill="#FFD700"/>
</svg>
