<svg width="100" height="100" viewBox="0 0 100 100" fill="none" xmlns="http://www.w3.org/2000/svg">
<rect width="100" height="100" rx="10" fill="#10003E"/>
<line x1="17.5" y1="19" x2="17.5" y2="56" stroke="#FFD700"/>
<line x1="28.5" y1="28" x2="28.5" y2="65" stroke="#FFD700" stroke-opacity="0.25"/>
<line x1="42.5" y1="17" x2="42.5" y2="54" stroke="#FFD700"/>
<line x1="51.5" y1="24" x2="51.5" y2="61" stroke="#FFD700" stroke-opacity="0.25"/>
<line x1="61.5" y1="11" x2="61.5" y2="48" stroke="#FFD700"/>
<line x1="69.5" y1="32" x2="69.5" y2="69" stroke="#FFD700" stroke-opacity="0.25"/>
<line x1="78.5" y1="12" x2="78.5" y2="49" stroke="#FFD700"/>
<line opacity="0.3" x1="28.5" y1="12" x2="28.5" y2="36" stroke="#FFD700"/>
<g filter="url(#filter0_d_165_3)">
<path d="M25.9318 69V28.2727H30.8636V64.625H49.7955V69H25.9318Z" fill="white"/>
</g>
<g filter="url(#filter1_d_165_3)">
<path d="M48.9318 85V44.2727H62.6932C65.875 44.2727 68.4867 44.8163 70.5284 45.9034C72.5701 46.9773 74.0814 48.4555 75.0625 50.3381C76.0436 52.2206 76.5341 54.3617 76.5341 56.7614C76.5341 59.161 76.0436 61.2888 75.0625 63.1449C74.0814 65.0009 72.5767 66.4593 70.5483 67.5199C68.5199 68.5672 65.928 69.0909 62.7727 69.0909H51.6364V64.6364H62.6136C64.7879 64.6364 66.5379 64.3182 67.8636 63.6818C69.2027 63.0455 70.1705 62.1439 70.767 60.9773C71.3769 59.7973 71.6818 58.392 71.6818 56.7614C71.6818 55.1307 71.3769 53.7055 70.767 52.4858C70.1572 51.2661 69.1828 50.3248 67.8438 49.6619C66.5047 48.9858 64.7348 48.6477 62.5341 48.6477H53.8636V85H48.9318ZM68.1023 66.7045L78.125 85H72.3977L62.5341 66.7045H68.1023Z" fill="white"/>
</g>
<g filter="url(#filter2_d_165_3)">
<path d="M36 72L37.3471 76.1459H41.7063L38.1796 78.7082L39.5267 82.8541L36 80.2918L32.4733 82.8541L33.8204 78.7082L30.2937 76.1459H34.6529L36 72Z" fill="#FFD700"/>
</g>
<path d="M47.5 8L47.6123 8.34549H47.9755L47.6816 8.55902L47.7939 8.90451L47.5 8.69098L47.2061 8.90451L47.3184 8.55902L47.0245 8.34549H47.3877L47.5 8Z" fill="#D9D9D9"/>
<path d="M30.5 11L30.6123 11.3455H30.9755L30.6816 11.559L30.7939 11.9045L30.5 11.691L30.2061 11.9045L30.3184 11.559L30.0245 11.3455H30.3877L30.5 11Z" fill="#D9D9D9"/>
<path d="M36.5 14L36.6123 14.3455H36.9755L36.6816 14.559L36.7939 14.9045L36.5 14.691L36.2061 14.9045L36.3184 14.559L36.0245 14.3455H36.3877L36.5 14Z" fill="#D9D9D9"/>
<path d="M40.5 9L40.6123 9.34549H40.9755L40.6816 9.55902L40.7939 9.90451L40.5 9.69098L40.2061 9.90451L40.3184 9.55902L40.0245 9.34549H40.3877L40.5 9Z" fill="#D9D9D9"/>
<path d="M46.5 12L46.6123 12.3455H46.9755L46.6816 12.559L46.7939 12.9045L46.5 12.691L46.2061 12.9045L46.3184 12.559L46.0245 12.3455H46.3877L46.5 12Z" fill="#D9D9D9"/>
<path d="M14.5 10L14.6123 10.3455H14.9755L14.6816 10.559L14.7939 10.9045L14.5 10.691L14.2061 10.9045L14.3184 10.559L14.0245 10.3455H14.3877L14.5 10Z" fill="#D9D9D9"/>
<path d="M87.5 12L87.6123 12.3455H87.9755L87.6816 12.559L87.7939 12.9045L87.5 12.691L87.2061 12.9045L87.3184 12.559L87.0245 12.3455H87.3877L87.5 12Z" fill="#D9D9D9"/>
<path d="M83.5 15L83.6123 15.3455H83.9755L83.6816 15.559L83.7939 15.9045L83.5 15.691L83.2061 15.9045L83.3184 15.559L83.0245 15.3455H83.3877L83.5 15Z" fill="#D9D9D9"/>
<path d="M80.5 11L80.6123 11.3455H80.9755L80.6816 11.559L80.7939 11.9045L80.5 11.691L80.2061 11.9045L80.3184 11.559L80.0245 11.3455H80.3877L80.5 11Z" fill="#D9D9D9"/>
<path d="M33.5 18L33.6123 18.3455H33.9755L33.6816 18.559L33.7939 18.9045L33.5 18.691L33.2061 18.9045L33.3184 18.559L33.0245 18.3455H33.3877L33.5 18Z" fill="#D9D9D9"/>
<path d="M12.5 14L12.6123 14.3455H12.9755L12.6816 14.559L12.7939 14.9045L12.5 14.691L12.2061 14.9045L12.3184 14.559L12.0245 14.3455H12.3877L12.5 14Z" fill="#D9D9D9"/>
<path d="M34.5 7L34.6123 7.34549H34.9755L34.6816 7.55902L34.7939 7.90451L34.5 7.69098L34.2061 7.90451L34.3184 7.55902L34.0245 7.34549H34.3877L34.5 7Z" fill="#D9D9D9"/>
<path d="M45.5 29L45.6123 29.3455H45.9755L45.6816 29.559L45.7939 29.9045L45.5 29.691L45.2061 29.9045L45.3184 29.559L45.0245 29.3455H45.3877L45.5 29Z" fill="#D9D9D9"/>
<path d="M28.5 32L28.6123 32.3455H28.9755L28.6816 32.559L28.7939 32.9045L28.5 32.691L28.2061 32.9045L28.3184 32.559L28.0245 32.3455H28.3877L28.5 32Z" fill="white"/>
<path d="M38.5 30L38.6123 30.3455H38.9755L38.6816 30.559L38.7939 30.9045L38.5 30.691L38.2061 30.9045L38.3184 30.559L38.0245 30.3455H38.3877L38.5 30Z" fill="#D9D9D9"/>
<path d="M44.5 33L44.6123 33.3455H44.9755L44.6816 33.559L44.7939 33.9045L44.5 33.691L44.2061 33.9045L44.3184 33.559L44.0245 33.3455H44.3877L44.5 33Z" fill="#D9D9D9"/>
<path d="M32.5 28L32.6123 28.3455H32.9755L32.6816 28.559L32.7939 28.9045L32.5 28.691L32.2061 28.9045L32.3184 28.559L32.0245 28.3455H32.3877L32.5 28Z" fill="#D9D9D9"/>
<path d="M89.5 30L89.6123 30.3455H89.9755L89.6816 30.559L89.7939 30.9045L89.5 30.691L89.2061 30.9045L89.3184 30.559L89.0245 30.3455H89.3877L89.5 30Z" fill="#D9D9D9"/>
<path d="M72.5 33L72.6123 33.3455H72.9755L72.6816 33.559L72.7939 33.9045L72.5 33.691L72.2061 33.9045L72.3184 33.559L72.0245 33.3455H72.3877L72.5 33Z" fill="#D9D9D9"/>
<path d="M82.5 31L82.6123 31.3455H82.9755L82.6816 31.559L82.7939 31.9045L82.5 31.691L82.2061 31.9045L82.3184 31.559L82.0245 31.3455H82.3877L82.5 31Z" fill="#D9D9D9"/>
<path d="M88.5 34L88.6123 34.3455H88.9755L88.6816 34.559L88.7939 34.9045L88.5 34.691L88.2061 34.9045L88.3184 34.559L88.0245 34.3455H88.3877L88.5 34Z" fill="#D9D9D9"/>
<path d="M76.5 29L76.6123 29.3455H76.9755L76.6816 29.559L76.7939 29.9045L76.5 29.691L76.2061 29.9045L76.3184 29.559L76.0245 29.3455H76.3877L76.5 29Z" fill="#D9D9D9"/>
<path d="M93.5 21L93.6123 21.3455H93.9755L93.6816 21.559L93.7939 21.9045L93.5 21.691L93.2061 21.9045L93.3184 21.559L93.0245 21.3455H93.3877L93.5 21Z" fill="#D9D9D9"/>
<path d="M76.5 24L76.6123 24.3455H76.9755L76.6816 24.559L76.7939 24.9045L76.5 24.691L76.2061 24.9045L76.3184 24.559L76.0245 24.3455H76.3877L76.5 24Z" fill="#D9D9D9"/>
<path d="M86.5 22L86.6123 22.3455H86.9755L86.6816 22.559L86.7939 22.9045L86.5 22.691L86.2061 22.9045L86.3184 22.559L86.0245 22.3455H86.3877L86.5 22Z" fill="#D9D9D9"/>
<path d="M92.5 25L92.6123 25.3455H92.9755L92.6816 25.559L92.7939 25.9045L92.5 25.691L92.2061 25.9045L92.3184 25.559L92.0245 25.3455H92.3877L92.5 25Z" fill="#D9D9D9"/>
<path d="M80.5 20L80.6123 20.3455H80.9755L80.6816 20.559L80.7939 20.9045L80.5 20.691L80.2061 20.9045L80.3184 20.559L80.0245 20.3455H80.3877L80.5 20Z" fill="#D9D9D9"/>
<path d="M71.5 25L71.6123 25.3455H71.9755L71.6816 25.559L71.7939 25.9045L71.5 25.691L71.2061 25.9045L71.3184 25.559L71.0245 25.3455H71.3877L71.5 25Z" fill="#D9D9D9"/>
<path d="M54.5 28L54.6123 28.3455H54.9755L54.6816 28.559L54.7939 28.9045L54.5 28.691L54.2061 28.9045L54.3184 28.559L54.0245 28.3455H54.3877L54.5 28Z" fill="#D9D9D9"/>
<path d="M64.5 26L64.6123 26.3455H64.9755L64.6816 26.559L64.7939 26.9045L64.5 26.691L64.2061 26.9045L64.3184 26.559L64.0245 26.3455H64.3877L64.5 26Z" fill="#D9D9D9"/>
<path d="M70.5 29L70.6123 29.3455H70.9755L70.6816 29.559L70.7939 29.9045L70.5 29.691L70.2061 29.9045L70.3184 29.559L70.0245 29.3455H70.3877L70.5 29Z" fill="#D9D9D9"/>
<path d="M58.5 24L58.6123 24.3455H58.9755L58.6816 24.559L58.7939 24.9045L58.5 24.691L58.2061 24.9045L58.3184 24.559L58.0245 24.3455H58.3877L58.5 24Z" fill="#D9D9D9"/>
<path d="M71.5 17L71.6123 17.3455H71.9755L71.6816 17.559L71.7939 17.9045L71.5 17.691L71.2061 17.9045L71.3184 17.559L71.0245 17.3455H71.3877L71.5 17Z" fill="#D9D9D9"/>
<path d="M54.5 20L54.6123 20.3455H54.9755L54.6816 20.559L54.7939 20.9045L54.5 20.691L54.2061 20.9045L54.3184 20.559L54.0245 20.3455H54.3877L54.5 20Z" fill="#D9D9D9"/>
<path d="M64.5 18L64.6123 18.3455H64.9755L64.6816 18.559L64.7939 18.9045L64.5 18.691L64.2061 18.9045L64.3184 18.559L64.0245 18.3455H64.3877L64.5 18Z" fill="#D9D9D9"/>
<path d="M70.5 21L70.6123 21.3455H70.9755L70.6816 21.559L70.7939 21.9045L70.5 21.691L70.2061 21.9045L70.3184 21.559L70.0245 21.3455H70.3877L70.5 21Z" fill="#D9D9D9"/>
<path d="M58.5 16L58.6123 16.3455H58.9755L58.6816 16.559L58.7939 16.9045L58.5 16.691L58.2061 16.9045L58.3184 16.559L58.0245 16.3455H58.3877L58.5 16Z" fill="#D9D9D9"/>
<path d="M50.5 21L50.6123 21.3455H50.9755L50.6816 21.559L50.7939 21.9045L50.5 21.691L50.2061 21.9045L50.3184 21.559L50.0245 21.3455H50.3877L50.5 21Z" fill="#D9D9D9"/>
<path d="M33.5 24L33.6123 24.3455H33.9755L33.6816 24.559L33.7939 24.9045L33.5 24.691L33.2061 24.9045L33.3184 24.559L33.0245 24.3455H33.3877L33.5 24Z" fill="#D9D9D9"/>
<path d="M43.5 22L43.6123 22.3455H43.9755L43.6816 22.559L43.7939 22.9045L43.5 22.691L43.2061 22.9045L43.3184 22.559L43.0245 22.3455H43.3877L43.5 22Z" fill="#D9D9D9"/>
<path d="M49.5 25L49.6123 25.3455H49.9755L49.6816 25.559L49.7939 25.9045L49.5 25.691L49.2061 25.9045L49.3184 25.559L49.0245 25.3455H49.3877L49.5 25Z" fill="#D9D9D9"/>
<path d="M37.5 20L37.6123 20.3455H37.9755L37.6816 20.559L37.7939 20.9045L37.5 20.691L37.2061 20.9045L37.3184 20.559L37.0245 20.3455H37.3877L37.5 20Z" fill="#D9D9D9"/>
<path d="M27.5 19L27.6123 19.3455H27.9755L27.6816 19.559L27.7939 19.9045L27.5 19.691L27.2061 19.9045L27.3184 19.559L27.0245 19.3455H27.3877L27.5 19Z" fill="#D9D9D9"/>
<path d="M10.5 22L10.6123 22.3455H10.9755L10.6816 22.559L10.7939 22.9045L10.5 22.691L10.2061 22.9045L10.3184 22.559L10.0245 22.3455H10.3877L10.5 22Z" fill="#D9D9D9"/>
<path d="M20.5 20L20.6123 20.3455H20.9755L20.6816 20.559L20.7939 20.9045L20.5 20.691L20.2061 20.9045L20.3184 20.559L20.0245 20.3455H20.3877L20.5 20Z" fill="#D9D9D9"/>
<path d="M26.5 23L26.6123 23.3455H26.9755L26.6816 23.559L26.7939 23.9045L26.5 23.691L26.2061 23.9045L26.3184 23.559L26.0245 23.3455H26.3877L26.5 23Z" fill="#D9D9D9"/>
<path d="M14.5 18L14.6123 18.3455H14.9755L14.6816 18.559L14.7939 18.9045L14.5 18.691L14.2061 18.9045L14.3184 18.559L14.0245 18.3455H14.3877L14.5 18Z" fill="#D9D9D9"/>
<path d="M25.5 8L25.6123 8.34549H25.9755L25.6816 8.55902L25.7939 8.90451L25.5 8.69098L25.2061 8.90451L25.3184 8.55902L25.0245 8.34549H25.3877L25.5 8Z" fill="#D9D9D9"/>
<path d="M53.5 8L53.6123 8.34549H53.9755L53.6816 8.55902L53.7939 8.90451L53.5 8.69098L53.2061 8.90451L53.3184 8.55902L53.0245 8.34549H53.3877L53.5 8Z" fill="#D9D9D9"/>
<path d="M73.5 9L73.6123 9.34549H73.9755L73.6816 9.55902L73.7939 9.90451L73.5 9.69098L73.2061 9.90451L73.3184 9.55902L73.0245 9.34549H73.3877L73.5 9Z" fill="#D9D9D9"/>
<path d="M71.5 14L71.6123 14.3455H71.9755L71.6816 14.559L71.7939 14.9045L71.5 14.691L71.2061 14.9045L71.3184 14.559L71.0245 14.3455H71.3877L71.5 14Z" fill="#D9D9D9"/>
<path d="M66.5 12L66.6123 12.3455H66.9755L66.6816 12.559L66.7939 12.9045L66.5 12.691L66.2061 12.9045L66.3184 12.559L66.0245 12.3455H66.3877L66.5 12Z" fill="#D9D9D9"/>
<path d="M60.5 9L60.6123 9.34549H60.9755L60.6816 9.55902L60.7939 9.90451L60.5 9.69098L60.2061 9.90451L60.3184 9.55902L60.0245 9.34549H60.3877L60.5 9Z" fill="#D9D9D9"/>
<path d="M55.5 13L55.6123 13.3455H55.9755L55.6816 13.559L55.7939 13.9045L55.5 13.691L55.2061 13.9045L55.3184 13.559L55.0245 13.3455H55.3877L55.5 13Z" fill="#D9D9D9"/>
<path d="M17.5 11L17.6123 11.3455H17.9755L17.6816 11.559L17.7939 11.9045L17.5 11.691L17.2061 11.9045L17.3184 11.559L17.0245 11.3455H17.3877L17.5 11Z" fill="#D9D9D9"/>
<path d="M50.5 17L50.6123 17.3455H50.9755L50.6816 17.559L50.7939 17.9045L50.5 17.691L50.2061 17.9045L50.3184 17.559L50.0245 17.3455H50.3877L50.5 17Z" fill="#D9D9D9"/>
<path d="M22.5 13L22.6123 13.3455H22.9755L22.6816 13.559L22.7939 13.9045L22.5 13.691L22.2061 13.9045L22.3184 13.559L22.0245 13.3455H22.3877L22.5 13Z" fill="#D9D9D9"/>
<defs>
<filter id="filter0_d_165_3" x="21.9318" y="28.2727" width="31.8636" height="48.7273" filterUnits="userSpaceOnUse" color-interpolation-filters="sRGB">
<feFlood flood-opacity="0" result="BackgroundImageFix"/>
<feColorMatrix in="SourceAlpha" type="matrix" values="0 0 0 0 0 0 0 0 0 0 0 0 0 0 0 0 0 0 127 0" result="hardAlpha"/>
<feOffset dy="4"/>
<feGaussianBlur stdDeviation="2"/>
<feComposite in2="hardAlpha" operator="out"/>
<feColorMatrix type="matrix" values="0 0 0 0 0 0 0 0 0 0 0 0 0 0 0 0 0 0 0.25 0"/>
<feBlend mode="normal" in2="BackgroundImageFix" result="effect1_dropShadow_165_3"/>
<feBlend mode="normal" in="SourceGraphic" in2="effect1_dropShadow_165_3" result="shape"/>
</filter>
<filter id="filter1_d_165_3" x="44.9318" y="44.2727" width="37.1932" height="48.7273" filterUnits="userSpaceOnUse" color-interpolation-filters="sRGB">
<feFlood flood-opacity="0" result="BackgroundImageFix"/>
<feColorMatrix in="SourceAlpha" type="matrix" values="0 0 0 0 0 0 0 0 0 0 0 0 0 0 0 0 0 0 127 0" result="hardAlpha"/>
<feOffset dy="4"/>
<feGaussianBlur stdDeviation="2"/>
<feComposite in2="hardAlpha" operator="out"/>
<feColorMatrix type="matrix" values="0 0 0 0 0 0 0 0 0 0 0 0 0 0 0 0 0 0 0.25 0"/>
<feBlend mode="normal" in2="BackgroundImageFix" result="effect1_dropShadow_165_3"/>
<feBlend mode="normal" in="SourceGraphic" in2="effect1_dropShadow_165_3" result="shape"/>
</filter>
<filter id="filter2_d_165_3" x="30.2936" y="70" width="17.4127" height="16.854" filterUnits="userSpaceOnUse" color-interpolation-filters="sRGB">
<feFlood flood-opacity="0" result="BackgroundImageFix"/>
<feColorMatrix in="SourceAlpha" type="matrix" values="0 0 0 0 0 0 0 0 0 0 0 0 0 0 0 0 0 0 127 0" result="hardAlpha"/>
<feOffset dx="3" dy="1"/>
<feGaussianBlur stdDeviation="1.5"/>
<feComposite in2="hardAlpha" operator="out"/>
<feColorMatrix type="matrix" values="0 0 0 0 1 0 0 0 0 0.843137 0 0 0 0 0 0 0 0 0.3 0"/>
<feBlend mode="normal" in2="BackgroundImageFix" result="effect1_dropShadow_165_3"/>
<feBlend mode="normal" in="SourceGraphic" in2="effect1_dropShadow_165_3" result="shape"/>
</filter>
</defs>
</svg>
