<svg width="435" height="121" viewBox="0 0 435 121" fill="none" xmlns="http://www.w3.org/2000/svg">
<path d="M145.192 87V35.16H151.096V87H145.192ZM148.216 87V81.816H177.736V87H148.216ZM195.091 87.72C191.587 87.72 188.491 86.904 185.803 85.272C183.115 83.592 181.003 81.312 179.467 78.432C177.931 75.552 177.163 72.24 177.163 68.496C177.163 64.752 177.907 61.464 179.395 58.632C180.931 55.752 183.067 53.52 185.803 51.936C188.539 50.352 191.683 49.56 195.235 49.56C198.643 49.56 201.595 50.304 204.091 51.792C206.635 53.28 208.579 55.368 209.923 58.056C211.315 60.744 212.011 63.912 212.011 67.56C212.011 68.04 211.987 68.496 211.939 68.928C211.939 69.36 211.891 69.84 211.795 70.368H181.483V65.544H208.267L206.395 68.208C206.395 63.792 205.411 60.408 203.443 58.056C201.523 55.656 198.787 54.456 195.235 54.456C191.587 54.456 188.635 55.728 186.379 58.272C184.171 60.768 183.067 64.152 183.067 68.424C183.067 72.792 184.171 76.296 186.379 78.936C188.635 81.528 191.635 82.824 195.379 82.824C197.731 82.824 199.795 82.32 201.571 81.312C203.347 80.256 204.643 78.768 205.459 76.848H210.931C209.731 80.208 207.715 82.872 204.883 84.84C202.099 86.76 198.835 87.72 195.091 87.72ZM243.795 87V78.432L244.515 78.648C243.603 81.432 241.923 83.64 239.475 85.272C237.075 86.904 234.195 87.72 230.835 87.72C227.523 87.72 224.619 86.928 222.123 85.344C219.675 83.76 217.755 81.552 216.363 78.72C215.019 75.888 214.347 72.576 214.347 68.784C214.347 64.944 215.043 61.584 216.435 58.704C217.827 55.824 219.771 53.592 222.267 52.008C224.763 50.424 227.691 49.632 231.051 49.632C234.507 49.632 237.411 50.472 239.763 52.152C242.115 53.832 243.723 56.208 244.587 59.28L243.435 59.424V35.16H249.195V87H243.795ZM231.915 82.68C235.611 82.68 238.491 81.432 240.555 78.936C242.667 76.392 243.723 72.936 243.723 68.568C243.723 64.296 242.667 60.912 240.555 58.416C238.443 55.92 235.563 54.672 231.915 54.672C228.267 54.672 225.411 55.92 223.347 58.416C221.283 60.912 220.251 64.368 220.251 68.784C220.251 73.104 221.283 76.512 223.347 79.008C225.411 81.456 228.267 82.68 231.915 82.68ZM271.763 102.48C267.395 102.48 263.747 101.448 260.819 99.384C257.939 97.368 256.187 94.68 255.563 91.32H261.035C261.563 93.24 262.739 94.752 264.563 95.856C266.435 97.008 268.955 97.584 272.123 97.584C275.867 97.584 278.699 96.552 280.619 94.488C282.539 92.472 283.499 89.496 283.499 85.56V77.712L284.219 77.856C283.403 80.64 281.771 82.872 279.323 84.552C276.875 86.184 273.971 87 270.611 87C267.395 87 264.563 86.232 262.115 84.696C259.667 83.112 257.771 80.928 256.427 78.144C255.083 75.36 254.411 72.12 254.411 68.424C254.411 64.68 255.107 61.392 256.499 58.56C257.891 55.728 259.835 53.544 262.331 52.008C264.875 50.424 267.827 49.632 271.187 49.632C274.643 49.632 277.523 50.472 279.827 52.152C282.179 53.832 283.739 56.232 284.507 59.352L283.859 59.424V50.28H289.259V85.56C289.259 90.792 287.699 94.92 284.579 97.944C281.459 100.968 277.187 102.48 271.763 102.48ZM272.051 82.032C275.651 82.032 278.507 80.784 280.619 78.288C282.731 75.792 283.787 72.408 283.787 68.136C283.787 63.96 282.731 60.672 280.619 58.272C278.507 55.824 275.651 54.6 272.051 54.6C268.403 54.6 265.523 55.824 263.411 58.272C261.347 60.72 260.315 64.08 260.315 68.352C260.315 72.528 261.371 75.864 263.483 78.36C265.595 80.808 268.451 82.032 272.051 82.032ZM312.26 87.72C308.756 87.72 305.66 86.904 302.972 85.272C300.284 83.592 298.172 81.312 296.636 78.432C295.1 75.552 294.332 72.24 294.332 68.496C294.332 64.752 295.076 61.464 296.564 58.632C298.1 55.752 300.236 53.52 302.972 51.936C305.708 50.352 308.852 49.56 312.404 49.56C315.812 49.56 318.764 50.304 321.26 51.792C323.804 53.28 325.748 55.368 327.092 58.056C328.484 60.744 329.18 63.912 329.18 67.56C329.18 68.04 329.156 68.496 329.108 68.928C329.108 69.36 329.06 69.84 328.964 70.368H298.652V65.544H325.436L323.564 68.208C323.564 63.792 322.58 60.408 320.612 58.056C318.692 55.656 315.956 54.456 312.404 54.456C308.756 54.456 305.804 55.728 303.548 58.272C301.34 60.768 300.236 64.152 300.236 68.424C300.236 72.792 301.34 76.296 303.548 78.936C305.804 81.528 308.804 82.824 312.548 82.824C314.9 82.824 316.964 82.32 318.74 81.312C320.516 80.256 321.812 78.768 322.628 76.848H328.1C326.9 80.208 324.884 82.872 322.052 84.84C319.268 86.76 316.004 87.72 312.26 87.72Z" fill="black"/>
<path d="M334.252 87V50.28H339.652V59.64H340.012V87H334.252ZM340.012 67.848L339.076 59.136C339.94 56.016 341.476 53.64 343.684 52.008C345.892 50.376 348.436 49.56 351.316 49.56C352.516 49.56 353.332 49.656 353.764 49.848V55.392C353.524 55.296 353.188 55.248 352.756 55.248C352.324 55.2 351.796 55.176 351.172 55.176C347.524 55.176 344.74 56.28 342.82 58.488C340.948 60.648 340.012 63.768 340.012 67.848ZM357.019 87V50.28H362.779V87H357.019ZM356.587 41.928V35.16H363.211V41.928H356.587ZM383.172 87.72C378.66 87.72 375.06 86.688 372.372 84.624C369.684 82.512 368.148 79.536 367.764 75.696H373.308C373.644 78.048 374.676 79.848 376.404 81.096C378.132 82.344 380.436 82.968 383.316 82.968C385.86 82.968 387.852 82.488 389.292 81.528C390.732 80.568 391.452 79.2 391.452 77.424C391.452 76.176 391.044 75.096 390.228 74.184C389.412 73.224 387.78 72.432 385.332 71.808L379.428 70.296C376.068 69.432 373.548 68.112 371.868 66.336C370.188 64.512 369.348 62.352 369.348 59.856C369.348 56.688 370.524 54.192 372.876 52.368C375.228 50.496 378.42 49.56 382.452 49.56C386.436 49.56 389.676 50.52 392.172 52.44C394.668 54.36 396.084 57.024 396.42 60.432H390.876C390.54 58.464 389.628 56.952 388.14 55.896C386.652 54.84 384.684 54.312 382.236 54.312C379.884 54.312 378.06 54.768 376.764 55.68C375.468 56.544 374.82 57.792 374.82 59.424C374.82 60.672 375.276 61.752 376.188 62.664C377.148 63.576 378.732 64.344 380.94 64.968L386.7 66.552C390.108 67.464 392.676 68.856 394.404 70.728C396.132 72.6 396.996 74.856 396.996 77.496C396.996 80.712 395.772 83.232 393.324 85.056C390.876 86.832 387.492 87.72 383.172 87.72ZM417.461 87.72C413.957 87.72 410.861 86.904 408.173 85.272C405.485 83.592 403.373 81.312 401.837 78.432C400.301 75.552 399.533 72.24 399.533 68.496C399.533 64.752 400.277 61.464 401.765 58.632C403.301 55.752 405.437 53.52 408.173 51.936C410.909 50.352 414.053 49.56 417.605 49.56C421.013 49.56 423.965 50.304 426.461 51.792C429.005 53.28 430.949 55.368 432.293 58.056C433.685 60.744 434.381 63.912 434.381 67.56C434.381 68.04 434.357 68.496 434.309 68.928C434.309 69.36 434.261 69.84 434.165 70.368H403.853V65.544H430.637L428.765 68.208C428.765 63.792 427.781 60.408 425.813 58.056C423.893 55.656 421.157 54.456 417.605 54.456C413.957 54.456 411.005 55.728 408.749 58.272C406.541 60.768 405.437 64.152 405.437 68.424C405.437 72.792 406.541 76.296 408.749 78.936C411.005 81.528 414.005 82.824 417.749 82.824C420.101 82.824 422.165 82.32 423.941 81.312C425.717 80.256 427.013 78.768 427.829 76.848H433.301C432.101 80.208 430.085 82.872 427.253 84.84C424.469 86.76 421.205 87.72 417.461 87.72Z" fill="#6C0087"/>
<rect width="121" height="121" rx="60.5" fill="#FFA852"/>
<path d="M40.525 26.2728C42.1133 26.0793 44.3421 27.2854 47.2115 29.8909C50.0809 32.4964 51.6768 35.1227 51.9992 37.7698C52.3216 40.4169 52.5009 45.197 52.537 52.11C52.565 58.9568 52.3947 64.4511 52.0261 68.5927C49.4511 93.218 47.0718 105.664 44.8879 105.93C43.432 106.107 41.471 105.171 39.0051 103.12C36.5972 100.996 35.3006 99.1725 35.1152 97.6505C35.0991 97.5181 35.5734 93.9681 36.538 87.0003C37.5026 80.0326 38.2335 71.1457 38.7307 60.3396C39.286 49.4593 38.9752 39.1882 37.7984 29.5263C37.5646 27.6071 38.4735 26.5226 40.525 26.2728Z" fill="white"/>
<path d="M57 57.1L56.4 45.8C56.4 42.0667 57.5667 40.2 59.9 40.2C61.2333 40.2 62.5333 40.7 63.8 41.7C65.1333 42.7 66.1333 44.2667 66.8 46.4C69.0667 44.4 71.5333 42.8 74.2 41.6C76.9333 40.3333 79.3333 39.7 81.4 39.7C86.2667 39.7 88.7 40.8667 88.7 43.2C88.7 44.4 88.4667 45.3 88 45.9C87.6 46.4333 87.2667 46.8333 87 47.1C86.8 47.3667 86.4 47.7333 85.8 48.2C85.2667 48.6 84.8667 48.9 84.6 49.1C83.0667 50.1 81.9667 50.8 81.3 51.2C78.3 53.0667 75.7333 55.3333 73.6 58C71.4667 60.6 69.8667 64.2333 68.8 68.9C67 76.5667 65.2333 82.3 63.5 86.1C61.8333 89.8333 59.9333 91.7 57.8 91.7C55.7333 91.7 54.1667 90.7 53.1 88.7C52.1 86.7 51.6 84.8333 51.6 83.1C51.6 81.3 52.2333 78.6333 53.5 75.1C54.8333 71.5667 55.7333 68.5333 56.2 66C56.7333 63.4 57 60.4333 57 57.1Z" fill="white"/>
<rect x="53" y="13" width="24" height="24" rx="12" fill="white"/>
</svg>
