<svg width="221" height="102" viewBox="0 0 221 102" fill="none" xmlns="http://www.w3.org/2000/svg">
<path d="M212.184 78.1842C213.126 75.8509 214.799 68.9842 213.951 60.1842C213.103 51.3842 212.419 47.1842 212.184 46.1842" stroke="#1900B6" stroke-opacity="0.3"/>
<path d="M211.184 78.1842C212.126 75.8509 213.799 68.9842 212.951 60.1842C212.103 51.3842 211.419 47.1842 211.184 46.1842" stroke="#1900B6" stroke-opacity="0.3"/>
<path d="M210.184 78.1842C211.126 75.8509 212.799 68.9842 211.951 60.1842C211.103 51.3842 210.419 47.1842 210.184 46.1842" stroke="#1900B6" stroke-opacity="0.3"/>
<path d="M209.184 78.1842C210.126 75.8509 211.799 68.9842 210.951 60.1842C210.103 51.3842 209.419 47.1842 209.184 46.1842" stroke="#1900B6" stroke-opacity="0.3"/>
<path d="M208.184 78.1842C209.126 75.8509 210.799 68.9842 209.951 60.1842C209.103 51.3842 208.419 47.1842 208.184 46.1842" stroke="#1900B6" stroke-opacity="0.3"/>
<path d="M207.184 78.1842C208.126 75.8509 209.799 68.9842 208.951 60.1842C208.103 51.3842 207.419 47.1842 207.184 46.1842" stroke="#1900B6" stroke-opacity="0.3"/>
<line x1="6.68359" y1="8.1842" x2="6.6836" y2="85.1842" stroke="#FFD700"/>
<line opacity="0.3" x1="23.6836" y1="19.1842" x2="23.6836" y2="43.1842" stroke="#FFD700"/>
<line x1="39.6836" y1="15.1842" x2="39.6836" y2="53.1842" stroke="#FFD700"/>
<line x1="52.6836" y1="0.184204" x2="52.6836" y2="47.1842" stroke="#FFD700" stroke-opacity="0.3"/>
<line x1="66.6836" y1="6.1842" x2="66.6836" y2="53.1842" stroke="#FFD700"/>
<line x1="80.6836" y1="18.1842" x2="80.6836" y2="41.1842" stroke="#FFD700" stroke-opacity="0.3"/>
<line x1="89.6836" y1="21.1842" x2="89.6836" y2="34.1842" stroke="#FFD700"/>
<path d="M5.81996 86.1842V39.6387H11.4563V81.1842H33.0927V86.1842H5.81996Z" fill="white"/>
<path d="M39.729 86.9115C36.3654 86.9115 33.4639 86.1691 31.0245 84.6842C28.6003 83.1842 26.729 81.0933 25.4109 78.4115C24.1078 75.7145 23.4563 72.5781 23.4563 69.0024C23.4563 65.4266 24.1078 62.2751 25.4109 59.5478C26.729 56.8054 28.5624 54.6691 30.9109 53.1387C33.2745 51.5933 36.0321 50.8206 39.1836 50.8206C41.0018 50.8206 42.7972 51.1236 44.57 51.7297C46.3427 52.3357 47.9563 53.3206 49.4109 54.6842C50.8654 56.0327 52.0245 57.8206 52.8881 60.0478C53.7518 62.2751 54.1836 65.0175 54.1836 68.2751V70.5478H27.2745V65.9115H48.729C48.729 63.9418 48.3351 62.1842 47.5472 60.6387C46.7745 59.0933 45.6684 57.8736 44.229 56.9797C42.8048 56.0857 41.123 55.6387 39.1836 55.6387C37.0472 55.6387 35.1987 56.1691 33.6381 57.2297C32.0927 58.2751 30.9033 59.6387 30.07 61.3206C29.2366 63.0024 28.82 64.8054 28.82 66.7297V69.8206C28.82 72.4569 29.2745 74.6918 30.1836 76.5251C31.1078 78.3433 32.3881 79.7297 34.0245 80.6842C35.6609 81.6236 37.5624 82.0933 39.729 82.0933C41.1381 82.0933 42.4109 81.8963 43.5472 81.5024C44.6987 81.0933 45.6912 80.4872 46.5245 79.6842C47.3578 78.866 48.0018 77.8509 48.4563 76.6387L53.6381 78.0933C53.0927 79.8509 52.176 81.3963 50.8881 82.7297C49.6003 84.0478 48.0094 85.0781 46.1154 85.8206C44.2215 86.5478 42.0927 86.9115 39.729 86.9115Z" fill="white"/>
<path d="M67.2745 86.9115C64.3654 86.9115 61.7972 86.1766 59.57 84.7069C57.3427 83.2221 55.6003 81.1312 54.3427 78.4342C53.0851 75.7221 52.4563 72.5175 52.4563 68.8206C52.4563 65.1539 53.0851 61.9721 54.3427 59.2751C55.6003 56.5781 57.3503 54.4948 59.5927 53.0251C61.8351 51.5554 64.426 50.8206 67.3654 50.8206C69.6381 50.8206 71.4336 51.1994 72.7518 51.9569C74.0851 52.6994 75.1003 53.5478 75.7972 54.5024C76.5094 55.4418 77.0624 56.2145 77.4563 56.8206H77.9109V39.6387H83.2745V86.1842H78.0927V80.8206H77.4563C77.0624 81.4569 76.5018 82.26 75.7745 83.2297C75.0472 84.1842 74.0094 85.0403 72.6609 85.7978C71.3124 86.5403 69.5169 86.9115 67.2745 86.9115ZM68.0018 82.0933C70.1533 82.0933 71.9715 81.5327 73.4563 80.4115C74.9412 79.2751 76.07 77.7069 76.8427 75.7069C77.6154 73.6918 78.0018 71.366 78.0018 68.7297C78.0018 66.1236 77.623 63.8433 76.8654 61.8887C76.1078 59.9191 74.9866 58.3887 73.5018 57.2978C72.0169 56.1918 70.1836 55.6387 68.0018 55.6387C65.729 55.6387 63.8351 56.2221 62.32 57.3887C60.82 58.5403 59.6912 60.1084 58.9336 62.0933C58.1912 64.063 57.82 66.2751 57.82 68.7297C57.82 71.2145 58.1987 73.4721 58.9563 75.5024C59.729 77.5175 60.8654 79.1236 62.3654 80.3206C63.8806 81.5024 65.7594 82.0933 68.0018 82.0933Z" fill="white"/>
<path d="M96.1836 100.002C93.5927 100.002 91.3654 99.6691 89.5018 99.0024C87.6381 98.3509 86.0851 97.4872 84.8427 96.4115C83.6154 95.3509 82.6381 94.2145 81.9109 93.0024L86.1836 90.0024C86.6684 90.6387 87.2821 91.366 88.0245 92.1842C88.7669 93.0175 89.7821 93.7372 91.07 94.3433C92.373 94.9645 94.0775 95.2751 96.1836 95.2751C99.0018 95.2751 101.328 94.5933 103.161 93.2297C104.994 91.866 105.911 89.7297 105.911 86.8206V79.7297H105.456C105.062 80.366 104.502 81.1539 103.775 82.0933C103.062 83.0175 102.032 83.8433 100.684 84.5706C99.3503 85.2827 97.5472 85.6387 95.2745 85.6387C92.4563 85.6387 89.926 84.9721 87.6836 83.6387C85.4563 82.3054 83.6912 80.366 82.3881 77.8206C81.1003 75.2751 80.4563 72.1842 80.4563 68.5478C80.4563 64.9721 81.0851 61.8584 82.3427 59.2069C83.6003 56.5403 85.3503 54.4797 87.5927 53.0251C89.8351 51.5554 92.426 50.8206 95.3654 50.8206C97.6381 50.8206 99.4412 51.1994 100.775 51.9569C102.123 52.6994 103.153 53.5478 103.865 54.5024C104.593 55.4418 105.153 56.2145 105.547 56.8206H106.093V51.2751H111.275V87.1842C111.275 90.1842 110.593 92.6236 109.229 94.5024C107.881 96.3963 106.062 97.7827 103.775 98.6615C101.502 99.5554 98.9715 100.002 96.1836 100.002ZM96.0018 80.8206C98.1533 80.8206 99.9715 80.3281 101.456 79.3433C102.941 78.3584 104.07 76.9418 104.843 75.0933C105.615 73.2448 106.002 71.0327 106.002 68.4569C106.002 65.9418 105.623 63.7221 104.865 61.7978C104.108 59.8736 102.987 58.366 101.502 57.2751C100.017 56.1842 98.1836 55.6387 96.0018 55.6387C93.729 55.6387 91.8351 56.2145 90.32 57.366C88.82 58.5175 87.6912 60.063 86.9336 62.0024C86.1912 63.9418 85.82 66.0933 85.82 68.4569C85.82 70.8812 86.1987 73.0251 86.9563 74.8887C87.729 76.7372 88.8654 78.1918 90.3654 79.2524C91.8806 80.2978 93.7594 80.8206 96.0018 80.8206Z" fill="white"/>
<path d="M126.729 86.9115C123.365 86.9115 120.464 86.1691 118.025 84.6842C115.6 83.1842 113.729 81.0933 112.411 78.4115C111.108 75.7145 110.456 72.5781 110.456 69.0024C110.456 65.4266 111.108 62.2751 112.411 59.5478C113.729 56.8054 115.562 54.6691 117.911 53.1387C120.275 51.5933 123.032 50.8206 126.184 50.8206C128.002 50.8206 129.797 51.1236 131.57 51.7297C133.343 52.3357 134.956 53.3206 136.411 54.6842C137.865 56.0327 139.025 57.8206 139.888 60.0478C140.752 62.2751 141.184 65.0175 141.184 68.2751V70.5478H114.275V65.9115H135.729C135.729 63.9418 135.335 62.1842 134.547 60.6387C133.775 59.0933 132.668 57.8736 131.229 56.9797C129.805 56.0857 128.123 55.6387 126.184 55.6387C124.047 55.6387 122.199 56.1691 120.638 57.2297C119.093 58.2751 117.903 59.6387 117.07 61.3206C116.237 63.0024 115.82 64.8054 115.82 66.7297V69.8206C115.82 72.4569 116.275 74.6918 117.184 76.5251C118.108 78.3433 119.388 79.7297 121.025 80.6842C122.661 81.6236 124.562 82.0933 126.729 82.0933C128.138 82.0933 129.411 81.8963 130.547 81.5024C131.699 81.0933 132.691 80.4872 133.525 79.6842C134.358 78.866 135.002 77.8509 135.456 76.6387L140.638 78.0933C140.093 79.8509 139.176 81.3963 137.888 82.7297C136.6 84.0478 135.009 85.0781 133.115 85.8206C131.221 86.5478 129.093 86.9115 126.729 86.9115Z" fill="white"/>
<path d="M137.093 86.1842V51.2751H142.275V56.5478H142.638C143.275 54.8206 144.426 53.4191 146.093 52.3433C147.759 51.2675 149.638 50.7297 151.729 50.7297C152.123 50.7297 152.615 50.7372 153.206 50.7524C153.797 50.7675 154.244 50.7903 154.547 50.8206V56.2751C154.365 56.2297 153.949 56.1615 153.297 56.0706C152.661 55.9645 151.987 55.9115 151.275 55.9115C149.578 55.9115 148.062 56.2675 146.729 56.9797C145.411 57.6766 144.365 58.6463 143.593 59.8887C142.835 61.116 142.456 62.5175 142.456 64.0933V86.1842H137.093Z" fill="#FFD700"/>
<path d="M153.15 86.1842V50.866H158.577V86.1842H153.15ZM155.909 44.9797C154.852 44.9797 153.94 44.6194 153.173 43.899C152.422 43.1785 152.047 42.3124 152.047 41.3007C152.047 40.289 152.422 39.4229 153.173 38.7024C153.94 37.9819 154.852 37.6217 155.909 37.6217C156.967 37.6217 157.872 37.9819 158.623 38.7024C159.389 39.4229 159.772 40.289 159.772 41.3007C159.772 42.3124 159.389 43.1785 158.623 43.899C157.872 44.6194 156.967 44.9797 155.909 44.9797Z" fill="#FFD700"/>
<path d="M183.82 59.0933L179.002 60.4569C178.699 59.6539 178.252 58.8736 177.661 58.116C177.085 57.3433 176.297 56.7069 175.297 56.2069C174.297 55.7069 173.017 55.4569 171.456 55.4569C169.32 55.4569 167.54 55.9494 166.115 56.9342C164.706 57.9039 164.002 59.1387 164.002 60.6387C164.002 61.9721 164.487 63.0251 165.456 63.7978C166.426 64.5706 167.941 65.2145 170.002 65.7297L175.184 67.0024C178.305 67.76 180.631 68.9191 182.161 70.4797C183.691 72.0251 184.456 74.0175 184.456 76.4569C184.456 78.4569 183.881 80.2448 182.729 81.8206C181.593 83.3963 180.002 84.6387 177.956 85.5478C175.911 86.4569 173.532 86.9115 170.82 86.9115C167.259 86.9115 164.312 86.1387 161.979 84.5933C159.646 83.0478 158.168 80.7903 157.547 77.8206L162.638 76.5478C163.123 78.4266 164.04 79.8357 165.388 80.7751C166.752 81.7145 168.532 82.1842 170.729 82.1842C173.229 82.1842 175.214 81.6539 176.684 80.5933C178.168 79.5175 178.911 78.2297 178.911 76.7297C178.911 75.5175 178.487 74.5024 177.638 73.6842C176.79 72.8509 175.487 72.2297 173.729 71.8206L167.911 70.4569C164.714 69.6994 162.365 68.5251 160.865 66.9342C159.381 65.3281 158.638 63.3206 158.638 60.9115C158.638 58.9418 159.191 57.1994 160.297 55.6842C161.418 54.1691 162.941 52.9797 164.865 52.116C166.805 51.2524 169.002 50.8206 171.456 50.8206C174.911 50.8206 177.623 51.5781 179.593 53.0933C181.578 54.6084 182.987 56.6084 183.82 59.0933Z" fill="#FFD700"/>
<path d="M198.729 86.9115C195.365 86.9115 192.464 86.1691 190.025 84.6842C187.6 83.1842 185.729 81.0933 184.411 78.4115C183.108 75.7145 182.456 72.5781 182.456 69.0024C182.456 65.4266 183.108 62.2751 184.411 59.5478C185.729 56.8054 187.562 54.6691 189.911 53.1387C192.275 51.5933 195.032 50.8206 198.184 50.8206C200.002 50.8206 201.797 51.1236 203.57 51.7297C205.343 52.3357 206.956 53.3206 208.411 54.6842C209.865 56.0327 211.025 57.8206 211.888 60.0478C212.752 62.2751 213.184 65.0175 213.184 68.2751V70.5478H186.275V65.9115H207.729C207.729 63.9418 207.335 62.1842 206.547 60.6387C205.775 59.0933 204.668 57.8736 203.229 56.9797C201.805 56.0857 200.123 55.6387 198.184 55.6387C196.047 55.6387 194.199 56.1691 192.638 57.2297C191.093 58.2751 189.903 59.6387 189.07 61.3206C188.237 63.0024 187.82 64.8054 187.82 66.7297V69.8206C187.82 72.4569 188.275 74.6918 189.184 76.5251C190.108 78.3433 191.388 79.7297 193.025 80.6842C194.661 81.6236 196.562 82.0933 198.729 82.0933C200.138 82.0933 201.411 81.8963 202.547 81.5024C203.699 81.0933 204.691 80.4872 205.525 79.6842C206.358 78.866 207.002 77.8509 207.456 76.6387L212.638 78.0933C212.093 79.8509 211.176 81.3963 209.888 82.7297C208.6 84.0478 207.009 85.0781 205.115 85.8206C203.221 86.5478 201.093 86.9115 198.729 86.9115Z" fill="#FFD700"/>
<path d="M205.031 37.5466L209.347 42.241L215.048 39.5981L212.015 45.1423L216.331 49.8366L210.14 48.5687L207.107 54.1129L206.314 47.7851L200.122 46.5172L205.824 43.8744L205.031 37.5466Z" fill="#FFD700"/>
</svg>
